<?xml version="1.0" standalone="no"?>
<!DOCTYPE svg PUBLIC "-//W3C//DTD SVG 20010904//EN"
 "http://www.w3.org/TR/2001/REC-SVG-20010904/DTD/svg10.dtd">
<svg version="1.0" xmlns="http://www.w3.org/2000/svg"
 width="1543.000000pt" height="1543.000000pt" viewBox="0 0 1543.000000 1543.000000"
 preserveAspectRatio="xMidYMid meet">
<metadata>
Created by potrace 1.14, written by Peter Selinger 2001-2017
</metadata>
<g transform="translate(0.000000,1543.000000) scale(0.100000,-0.100000)"
fill="#000000" stroke="none">
<path d="M6008 10366 c-1 -2 -48 -6 -103 -10 -55 -3 -113 -8 -130 -10 -16 -3
-49 -7 -73 -10 -158 -20 -419 -84 -590 -145 -690 -248 -1251 -738 -1594 -1389
-125 -238 -244 -582 -283 -817 -9 -55 -27 -167 -34 -220 -10 -62 -8 -590 2
-635 3 -14 8 -52 12 -85 4 -32 8 -67 10 -76 2 -9 6 -33 9 -54 19 -116 96 -379
156 -531 65 -163 236 -493 261 -502 5 -2 9 -8 9 -12 0 -8 104 -161 130 -193
22 -26 50 -60 82 -100 59 -75 301 -312 393 -386 218 -175 410 -288 726 -429
172 -77 476 -158 718 -192 209 -29 590 -32 728 -5 11 2 44 6 74 10 45 6 101
16 270 50 51 10 297 88 334 105 11 6 51 21 88 35 37 14 96 39 129 56 l62 31
-40 37 c-22 20 -82 74 -134 121 -325 295 -563 613 -760 1015 -116 237 -208
499 -250 710 -5 28 -11 59 -13 70 -3 11 -8 43 -12 70 -5 28 -9 52 -10 55 -1 4
-12 91 -21 165 -24 206 -23 550 2 740 19 141 48 293 80 420 162 641 535 1231
1068 1690 l116 100 -87 42 c-133 63 -395 157 -513 183 -145 32 -231 50 -265
55 -22 3 -53 8 -70 10 -56 10 -119 14 -285 20 -91 4 -170 8 -177 10 -6 2 -13
2 -15 1z"/>
<path d="M9215 10293 c-27 -3 -175 -20 -246 -29 -98 -12 -353 -78 -509 -131
-226 -76 -498 -215 -729 -371 -313 -212 -619 -550 -823 -910 -114 -202 -248
-538 -283 -712 -2 -8 -8 -35 -15 -60 -7 -25 -14 -55 -16 -67 -2 -13 -6 -35 -9
-50 -65 -341 -65 -703 -1 -1058 10 -56 66 -280 75 -300 5 -11 15 -40 22 -65
83 -287 293 -662 523 -935 88 -105 328 -339 411 -401 138 -104 357 -240 505
-314 91 -46 317 -138 390 -159 25 -7 54 -17 65 -22 43 -18 309 -79 407 -94
241 -34 654 -34 853 0 291 51 535 125 780 238 551 256 990 664 1287 1198 57
103 79 147 146 299 50 111 139 402 157 510 3 19 10 53 15 75 5 22 11 64 15 94
4 30 9 63 11 75 8 41 18 233 18 346 0 112 -12 329 -19 340 -2 3 -6 30 -10 60
-4 30 -11 78 -17 105 -5 28 -12 64 -14 80 -7 40 -60 235 -86 310 -103 309
-265 608 -470 868 -101 129 -377 400 -508 500 -172 131 -441 285 -620 357 -30
12 -68 28 -85 35 -30 14 -232 81 -270 90 -11 3 -56 13 -100 24 -139 34 -272
55 -427 66 -91 7 -371 12 -423 8z m425 -407 c54 -6 121 -16 150 -21 8 -1 35
-6 60 -10 184 -29 429 -110 635 -210 122 -60 323 -181 387 -234 7 -6 42 -34
78 -63 77 -62 71 -58 146 -130 228 -218 389 -437 519 -703 87 -179 161 -380
189 -519 48 -231 56 -303 56 -541 0 -238 -9 -334 -45 -511 -99 -480 -319 -881
-679 -1239 -292 -290 -617 -491 -980 -605 -245 -77 -487 -113 -751 -114 -106
0 -269 9 -310 18 -11 2 -47 7 -80 11 -32 3 -62 8 -65 10 -4 2 -22 7 -41 10
-64 11 -219 56 -330 95 -118 43 -392 170 -421 197 -24 21 -23 44 4 74 12 13
42 47 67 74 91 101 113 127 194 235 234 312 396 651 492 1030 69 271 80 378
80 750 -1 303 -1 309 -61 605 -59 296 -217 666 -407 952 -79 120 -231 315
-313 403 -46 48 -60 77 -48 98 5 9 79 52 163 94 177 88 395 164 581 202 122
25 141 28 265 42 33 3 61 7 62 8 6 5 355 -2 403 -8z"/>
</g>
</svg>
