<?xml version="1.0" standalone="no"?>
<!DOCTYPE svg PUBLIC "-//W3C//DTD SVG 20010904//EN"
 "http://www.w3.org/TR/2001/REC-SVG-20010904/DTD/svg10.dtd">
<svg version="1.0" xmlns="http://www.w3.org/2000/svg"
 width="1157.000000pt" height="862.000000pt" viewBox="0 0 1157.000000 862.000000"
 preserveAspectRatio="xMidYMid meet">

<g transform="translate(0.000000,862.000000) scale(0.100000,-0.100000)"
fill="#000000" stroke="none">
<path d="M4430 6294 c-306 -27 -566 -97 -815 -218 -665 -324 -1116 -957 -1210
-1696 -25 -194 -17 -473 19 -663 128 -672 558 -1248 1161 -1551 523 -262 1117
-307 1667 -125 108 36 286 110 291 121 1 2 -47 46 -107 98 -358 309 -639 762
-757 1219 -69 267 -96 598 -70 856 68 669 371 1231 906 1682 l50 42 -80 37
c-180 83 -400 148 -606 178 -108 16 -366 27 -449 20z"/>
<path d="M6860 6240 c-275 -27 -597 -124 -820 -248 -236 -131 -337 -202 -470
-329 -561 -534 -794 -1337 -605 -2084 98 -387 284 -711 574 -1000 133 -133
195 -180 403 -307 223 -137 486 -234 764 -283 186 -33 512 -33 697 0 697 123
1266 545 1572 1166 369 747 273 1635 -245 2285 -85 107 -280 297 -383 374
-292 217 -628 358 -980 410 -133 20 -381 28 -507 16z m355 -300 c444 -42 832
-225 1145 -539 276 -278 450 -616 517 -1006 25 -150 23 -453 -5 -605 -72 -392
-236 -704 -517 -985 -341 -341 -752 -522 -1230 -542 -308 -13 -598 49 -880
187 -181 89 -173 71 -75 179 292 318 469 674 551 1106 30 157 37 494 15 660
-62 449 -237 830 -543 1178 -107 122 -114 101 56 187 290 145 641 210 966 180z"/>
</g>
</svg>
